<svg xmlns="http://www.w3.org/2000/svg" width="2400" height="1400" viewBox="0 0 2400 1400">
<rect width="100%" height="100%" fill="#fff"/>
<text x="1200" y="62" font-family="Arial, Helvetica, sans-serif" font-size="44" font-weight="700" fill="#171717" text-anchor="middle" dominant-baseline="middle">Accuracy vs. Memory by Method and Temperature</text>
<text x="385" y="132" font-family="Arial, Helvetica, sans-serif" font-size="21" font-weight="700" fill="#171717" text-anchor="start" dominant-baseline="middle">Method:</text>
<circle cx="500" cy="132" r="8" fill="#2B2B2B" stroke="none" stroke-width="0" />
<text x="524" y="132" font-family="Arial, Helvetica, sans-serif" font-size="21" font-weight="400" fill="#171717" text-anchor="start" dominant-baseline="middle">Baseline</text>
<circle cx="672" cy="132" r="8" fill="#F4A259" stroke="none" stroke-width="0" />
<text x="696" y="132" font-family="Arial, Helvetica, sans-serif" font-size="21" font-weight="400" fill="#171717" text-anchor="start" dominant-baseline="middle">OmniZip</text>
<circle cx="831" cy="132" r="8" fill="#4E7D7B" stroke="none" stroke-width="0" />
<text x="855" y="132" font-family="Arial, Helvetica, sans-serif" font-size="21" font-weight="400" fill="#171717" text-anchor="start" dominant-baseline="middle">DivPrune</text>
<circle cx="1003" cy="132" r="8" fill="#B77A88" stroke="none" stroke-width="0" />
<text x="1027" y="132" font-family="Arial, Helvetica, sans-serif" font-size="21" font-weight="400" fill="#171717" text-anchor="start" dominant-baseline="middle">ReDiPrune</text>
<circle cx="1188" cy="132" r="8" fill="#6E6E6E" stroke="none" stroke-width="0" />
<text x="1212" y="132" font-family="Arial, Helvetica, sans-serif" font-size="21" font-weight="400" fill="#171717" text-anchor="start" dominant-baseline="middle">MixKV</text>
<text x="820" y="182" font-family="Arial, Helvetica, sans-serif" font-size="21" font-weight="700" fill="#171717" text-anchor="start" dominant-baseline="middle">Temperature:</text>
<circle cx="1000" cy="182" r="8" fill="#333" stroke="#555" stroke-width="1.5" />
<text x="1020" y="182" font-family="Arial, Helvetica, sans-serif" font-size="21" font-weight="400" fill="#171717" text-anchor="start" dominant-baseline="middle">T=0.1</text>
<polygon points="1125,173 1134,182 1125,191 1116,182" fill="#333" stroke="#555" stroke-width="1.5" />
<text x="1148" y="182" font-family="Arial, Helvetica, sans-serif" font-size="21" font-weight="400" fill="#171717" text-anchor="start" dominant-baseline="middle">T=0.9</text>
<line x1="314.702" y1="235" x2="314.702" y2="1225" stroke="#E6E6E6" stroke-width="1.4" />
<text x="314.702" y="1259" font-family="Arial, Helvetica, sans-serif" font-size="21" font-weight="400" fill="#555" text-anchor="middle" dominant-baseline="middle">20</text>
<line x1="564.107" y1="235" x2="564.107" y2="1225" stroke="#E6E6E6" stroke-width="1.4" />
<text x="564.107" y="1259" font-family="Arial, Helvetica, sans-serif" font-size="21" font-weight="400" fill="#555" text-anchor="middle" dominant-baseline="middle">22</text>
<line x1="813.512" y1="235" x2="813.512" y2="1225" stroke="#E6E6E6" stroke-width="1.4" />
<text x="813.512" y="1259" font-family="Arial, Helvetica, sans-serif" font-size="21" font-weight="400" fill="#555" text-anchor="middle" dominant-baseline="middle">24</text>
<line x1="1062.917" y1="235" x2="1062.917" y2="1225" stroke="#E6E6E6" stroke-width="1.4" />
<text x="1062.917" y="1259" font-family="Arial, Helvetica, sans-serif" font-size="21" font-weight="400" fill="#555" text-anchor="middle" dominant-baseline="middle">26</text>
<line x1="1312.321" y1="235" x2="1312.321" y2="1225" stroke="#E6E6E6" stroke-width="1.4" />
<text x="1312.321" y="1259" font-family="Arial, Helvetica, sans-serif" font-size="21" font-weight="400" fill="#555" text-anchor="middle" dominant-baseline="middle">28</text>
<line x1="1561.726" y1="235" x2="1561.726" y2="1225" stroke="#E6E6E6" stroke-width="1.4" />
<text x="1561.726" y="1259" font-family="Arial, Helvetica, sans-serif" font-size="21" font-weight="400" fill="#555" text-anchor="middle" dominant-baseline="middle">30</text>
<line x1="1811.131" y1="235" x2="1811.131" y2="1225" stroke="#E6E6E6" stroke-width="1.4" />
<text x="1811.131" y="1259" font-family="Arial, Helvetica, sans-serif" font-size="21" font-weight="400" fill="#555" text-anchor="middle" dominant-baseline="middle">32</text>
<line x1="2060.536" y1="235" x2="2060.536" y2="1225" stroke="#E6E6E6" stroke-width="1.4" />
<text x="2060.536" y="1259" font-family="Arial, Helvetica, sans-serif" font-size="21" font-weight="400" fill="#555" text-anchor="middle" dominant-baseline="middle">34</text>
<line x1="190" y1="1225" x2="2285" y2="1225" stroke="#E6E6E6" stroke-width="1.4" />
<text x="172" y="1225" font-family="Arial, Helvetica, sans-serif" font-size="21" font-weight="400" fill="#555" text-anchor="end" dominant-baseline="middle">18</text>
<line x1="190" y1="1117.973" x2="2285" y2="1117.973" stroke="#E6E6E6" stroke-width="1.4" />
<text x="172" y="1117.973" font-family="Arial, Helvetica, sans-serif" font-size="21" font-weight="400" fill="#555" text-anchor="end" dominant-baseline="middle">20</text>
<line x1="190" y1="1010.946" x2="2285" y2="1010.946" stroke="#E6E6E6" stroke-width="1.4" />
<text x="172" y="1010.946" font-family="Arial, Helvetica, sans-serif" font-size="21" font-weight="400" fill="#555" text-anchor="end" dominant-baseline="middle">22</text>
<line x1="190" y1="903.919" x2="2285" y2="903.919" stroke="#E6E6E6" stroke-width="1.4" />
<text x="172" y="903.919" font-family="Arial, Helvetica, sans-serif" font-size="21" font-weight="400" fill="#555" text-anchor="end" dominant-baseline="middle">24</text>
<line x1="190" y1="796.892" x2="2285" y2="796.892" stroke="#E6E6E6" stroke-width="1.4" />
<text x="172" y="796.892" font-family="Arial, Helvetica, sans-serif" font-size="21" font-weight="400" fill="#555" text-anchor="end" dominant-baseline="middle">26</text>
<line x1="190" y1="689.865" x2="2285" y2="689.865" stroke="#E6E6E6" stroke-width="1.4" />
<text x="172" y="689.865" font-family="Arial, Helvetica, sans-serif" font-size="21" font-weight="400" fill="#555" text-anchor="end" dominant-baseline="middle">28</text>
<line x1="190" y1="582.838" x2="2285" y2="582.838" stroke="#E6E6E6" stroke-width="1.4" />
<text x="172" y="582.838" font-family="Arial, Helvetica, sans-serif" font-size="21" font-weight="400" fill="#555" text-anchor="end" dominant-baseline="middle">30</text>
<line x1="190" y1="475.811" x2="2285" y2="475.811" stroke="#E6E6E6" stroke-width="1.4" />
<text x="172" y="475.811" font-family="Arial, Helvetica, sans-serif" font-size="21" font-weight="400" fill="#555" text-anchor="end" dominant-baseline="middle">32</text>
<line x1="190" y1="368.784" x2="2285" y2="368.784" stroke="#E6E6E6" stroke-width="1.4" />
<text x="172" y="368.784" font-family="Arial, Helvetica, sans-serif" font-size="21" font-weight="400" fill="#555" text-anchor="end" dominant-baseline="middle">34</text>
<line x1="190" y1="261.757" x2="2285" y2="261.757" stroke="#E6E6E6" stroke-width="1.4" />
<text x="172" y="261.757" font-family="Arial, Helvetica, sans-serif" font-size="21" font-weight="400" fill="#555" text-anchor="end" dominant-baseline="middle">36</text>
<rect x="190" y="235" width="2095" height="990" fill="none" stroke="#303030" stroke-width="2.2" />
<text x="1237.5" y="1328" font-family="Arial, Helvetica, sans-serif" font-size="29" font-weight="400" fill="#171717" text-anchor="middle" dominant-baseline="middle">Memory Mean (GB)</text>
<text x="58" y="730" font-family="Arial, Helvetica, sans-serif" font-size="29" font-weight="400" fill="#171717" text-anchor="middle" dominant-baseline="middle" transform="rotate(-90 58 730)">Accuracy Mean (%)</text>
<line x1="2074.662" y1="594.947" x2="2074.662" y2="452.817" stroke="#707070" stroke-width="2" />
<line x1="2064.662" y1="594.947" x2="2084.662" y2="594.947" stroke="#707070" stroke-width="2" />
<line x1="2064.662" y1="452.817" x2="2084.662" y2="452.817" stroke="#707070" stroke-width="2" />
<line x1="2074.662" y1="566.024" x2="2074.662" y2="245.918" stroke="#707070" stroke-width="2" />
<line x1="2064.662" y1="566.024" x2="2084.662" y2="566.024" stroke="#707070" stroke-width="2" />
<line x1="2064.662" y1="245.918" x2="2084.662" y2="245.918" stroke="#707070" stroke-width="2" />
<line x1="305.084" y1="519.347" x2="574.651" y2="519.347" stroke="#707070" stroke-width="2" />
<line x1="305.084" y1="509.347" x2="305.084" y2="529.347" stroke="#707070" stroke-width="2" />
<line x1="574.651" y1="509.347" x2="574.651" y2="529.347" stroke="#707070" stroke-width="2" />
<line x1="439.868" y1="589.604" x2="439.868" y2="449.091" stroke="#707070" stroke-width="2" />
<line x1="429.868" y1="589.604" x2="449.868" y2="589.604" stroke="#707070" stroke-width="2" />
<line x1="429.868" y1="449.091" x2="449.868" y2="449.091" stroke="#707070" stroke-width="2" />
<line x1="481.361" y1="433.181" x2="487.127" y2="433.181" stroke="#707070" stroke-width="2" />
<line x1="481.361" y1="423.181" x2="481.361" y2="443.181" stroke="#707070" stroke-width="2" />
<line x1="487.127" y1="423.181" x2="487.127" y2="443.181" stroke="#707070" stroke-width="2" />
<line x1="484.244" y1="615.901" x2="484.244" y2="250.462" stroke="#707070" stroke-width="2" />
<line x1="474.244" y1="615.901" x2="494.244" y2="615.901" stroke="#707070" stroke-width="2" />
<line x1="474.244" y1="250.462" x2="494.244" y2="250.462" stroke="#707070" stroke-width="2" />
<line x1="488.604" y1="1163.968" x2="488.604" y2="1035.698" stroke="#707070" stroke-width="2" />
<line x1="478.604" y1="1163.968" x2="498.604" y2="1163.968" stroke="#707070" stroke-width="2" />
<line x1="478.604" y1="1035.698" x2="498.604" y2="1035.698" stroke="#707070" stroke-width="2" />
<line x1="488.604" y1="1059.583" x2="488.604" y2="695.648" stroke="#707070" stroke-width="2" />
<line x1="478.604" y1="1059.583" x2="498.604" y2="1059.583" stroke="#707070" stroke-width="2" />
<line x1="478.604" y1="695.648" x2="498.604" y2="695.648" stroke="#707070" stroke-width="2" />
<line x1="488.604" y1="1070.779" x2="488.604" y2="974.695" stroke="#707070" stroke-width="2" />
<line x1="478.604" y1="1070.779" x2="498.604" y2="1070.779" stroke="#707070" stroke-width="2" />
<line x1="478.604" y1="974.695" x2="498.604" y2="974.695" stroke="#707070" stroke-width="2" />
<line x1="488.604" y1="866.004" x2="488.604" y2="680.615" stroke="#707070" stroke-width="2" />
<line x1="478.604" y1="866.004" x2="498.604" y2="866.004" stroke="#707070" stroke-width="2" />
<line x1="478.604" y1="680.615" x2="498.604" y2="680.615" stroke="#707070" stroke-width="2" />
<line x1="826.908" y1="1175.337" x2="826.908" y2="1060.609" stroke="#707070" stroke-width="2" />
<line x1="816.908" y1="1175.337" x2="836.908" y2="1175.337" stroke="#707070" stroke-width="2" />
<line x1="816.908" y1="1060.609" x2="836.908" y2="1060.609" stroke="#707070" stroke-width="2" />
<line x1="826.908" y1="1190.534" x2="826.908" y2="827.73" stroke="#707070" stroke-width="2" />
<line x1="816.908" y1="1190.534" x2="836.908" y2="1190.534" stroke="#707070" stroke-width="2" />
<line x1="816.908" y1="827.73" x2="836.908" y2="827.73" stroke="#707070" stroke-width="2" />
<circle cx="2074.662" cy="523.882" r="12" fill="#2B2B2B" stroke="#555" stroke-width="1.5" />
<polygon points="2074.662,393.971 2086.662,405.971 2074.662,417.971 2062.662,405.971" fill="#2B2B2B" stroke="#555" stroke-width="1.5" />
<circle cx="439.868" cy="519.347" r="12" fill="#F4A259" stroke="#555" stroke-width="1.5" />
<polygon points="484.244,421.181 496.244,433.181 484.244,445.181 472.244,433.181" fill="#F4A259" stroke="#555" stroke-width="1.5" />
<circle cx="488.604" cy="1099.833" r="12" fill="#4E7D7B" stroke="#555" stroke-width="1.5" />
<polygon points="488.604,865.616 500.604,877.616 488.604,889.616 476.604,877.616" fill="#4E7D7B" stroke="#555" stroke-width="1.5" />
<circle cx="488.604" cy="1022.737" r="12" fill="#B77A88" stroke="#555" stroke-width="1.5" />
<polygon points="488.604,761.31 500.604,773.31 488.604,785.31 476.604,773.31" fill="#B77A88" stroke="#555" stroke-width="1.5" />
<circle cx="826.908" cy="1117.973" r="12" fill="#6E6E6E" stroke="#555" stroke-width="1.5" />
<polygon points="826.908,997.132 838.908,1009.132 826.908,1021.132 814.908,1009.132" fill="#6E6E6E" stroke="#555" stroke-width="1.5" />
</svg>